<svg width="18" height="18" viewBox="0 0 18 18" fill="none" xmlns="http://www.w3.org/2000/svg">
<path d="M13.6983 12.096C15.228 10.0223 15.6011 7.31431 14.6893 4.90444C13.7775 2.49447 11.7054 0.711637 9.18644 0.169835C6.66724 -0.371967 4.04552 0.401223 2.22329 2.22329C0.401198 4.04518 -0.371973 6.66709 0.169829 9.18645C0.711631 11.7057 2.49451 13.7777 4.90443 14.6893C7.31441 15.6011 10.0223 15.2279 12.096 13.6983L16.0794 17.6705C16.3636 17.9546 16.7779 18.0656 17.1661 17.9617C17.5544 17.8576 17.8575 17.5544 17.9617 17.1661C18.0656 16.7779 17.9546 16.3635 17.6705 16.0794L13.6983 12.096ZM2.25682 7.59804C2.25682 6.18146 2.8194 4.82297 3.82123 3.82134C4.82286 2.81951 6.18141 2.25692 7.59793 2.25692C9.01446 2.25692 10.373 2.81951 11.3746 3.82134C12.3765 4.82297 12.939 6.18151 12.939 7.59804C12.939 9.01456 12.3765 10.3731 11.3746 11.3747C10.373 12.3766 9.01446 12.9391 7.59793 12.9391C6.18141 12.9391 4.82286 12.3766 3.82123 11.3747C2.8194 10.3731 2.25682 9.01456 2.25682 7.59804Z" fill="#969696"/>
</svg>
